<svg xmlns="http://www.w3.org/2000/svg" xmlns:xlink="http://www.w3.org/1999/xlink" viewBox="0,0,256,256" width="480px" height="480px" fill-rule="evenodd"><g fill="none" fill-rule="evenodd" stroke="none" stroke-width="1" stroke-linecap="butt" stroke-linejoin="miter" stroke-miterlimit="10" stroke-dasharray="" stroke-dashoffset="0" font-family="none" font-weight="none" font-size="none" text-anchor="none" style="mix-blend-mode: normal"><g transform="scale(5.33333,5.33333)"><ellipse cx="24" cy="24.005" rx="20" ry="19.992" fill-opacity="0" fill="#212121"></ellipse><path d="M24.801,15.418c-1.818,-3.614 -4.66,-5.927 -7.819,-7.839c4.035,-1.027 8.202,-0.694 12.5,1l1.852,4z" fill="#2a2f94"></path><path d="M10.734,9.038c-3.12,3.458 -5.02,8.037 -5.02,13.055c0,10.762 8.738,19.5 19.5,19.5c8.073,0 14.615,-4.58 17.576,-11.578c-2.451,8.277 -9.724,13.985 -18.79,13.985c-11.038,0 -20,-8.962 -20,-20c0,-5.95 2.604,-11.296 6.734,-14.962z" fill="#280f7e"></path><path d="M23.934,4h0.066c11.038,0 20,8.962 20,20c0,11.038 -8.962,20 -20,20c-2.842,0 -5.547,-0.594 -7.995,-1.665c5.262,-2.14 9.608,-5.285 11.987,-10.332c0,0 -6.105,3.005 -9.702,3.005c-3.331,0 -6.248,-3.909 -8.043,-6.762c-0.323,-0.518 -0.355,-1.166 -0.087,-1.714c0.269,-0.548 0.8,-0.919 1.408,-0.983c2.514,-0.266 5.783,-1.564 8.432,-3.456c2.394,-1.71 2.19,-4.363 4.88,-7c1.299,-1.273 3.463,-2.275 5.172,-3.094c-1.685,-2.935 -3.523,-5.516 -6.118,-7.999z" fill="#363dac"></path></g></g></svg>